<svg width="30" height="30" viewBox="0 0 30 30" fill="none" xmlns="http://www.w3.org/2000/svg">
<path fill-rule="evenodd" clip-rule="evenodd" d="M29.6328 0.367188C29.7492 0.483287 29.8416 0.621209 29.9046 0.773052C29.9676 0.924896 30 1.08768 30 1.25208C30 1.41647 29.9676 1.57926 29.9046 1.7311C29.8416 1.88294 29.7492 2.02086 29.6328 2.13696L2.13692 29.6335C1.90223 29.8682 1.58394 30 1.25205 30C0.920158 30 0.601861 29.8682 0.36718 29.6335C0.132498 29.3988 0.000655649 29.0805 0.000655649 28.7486C0.000655649 28.4167 0.132498 28.0984 0.36718 27.8637L27.8631 0.367188C27.9792 0.250794 28.1171 0.158449 28.2689 0.0954411C28.4208 0.032433 28.5836 0 28.748 0C28.9123 0 29.0751 0.032433 29.227 0.0954411C29.3788 0.158449 29.5167 0.250794 29.6328 0.367188Z" fill="#0070AF"/>
<path fill-rule="evenodd" clip-rule="evenodd" d="M0.36718 0.367188C0.250789 0.483287 0.158446 0.621209 0.095439 0.773052C0.0324323 0.924896 0 1.08768 0 1.25208C0 1.41647 0.0324323 1.57926 0.095439 1.7311C0.158446 1.88294 0.250789 2.02086 0.36718 2.13696L27.8631 29.6335C28.0978 29.8682 28.4161 30 28.748 30C29.0798 30 29.3981 29.8682 29.6328 29.6335C29.8675 29.3988 29.9993 29.0805 29.9993 28.7486C29.9993 28.4167 29.8675 28.0984 29.6328 27.8637L2.13692 0.367188C2.02082 0.250794 1.8829 0.158449 1.73106 0.0954411C1.57922 0.032433 1.41644 0 1.25205 0C1.08765 0 0.924875 0.032433 0.773035 0.0954411C0.621195 0.158449 0.483277 0.250794 0.36718 0.367188Z" fill="#0070AF"/>
</svg>
